<?xml version="1.0" encoding="UTF-8"?>
<svg version="1.1" xmlns="http://www.w3.org/2000/svg" width="281" height="313">
<path d="M0 0 C1.73514676 0.00254107 3.47030319 0.00110896 5.20544434 -0.00398254 C9.89989066 -0.00655828 14.59225502 0.04624139 19.28621864 0.10918307 C24.19749942 0.16555813 29.10883133 0.17074046 34.02038574 0.18141174 C43.31372805 0.20935208 52.60611414 0.2831618 61.89903593 0.37355715 C72.48171419 0.47425725 83.06443883 0.52366378 93.64747715 0.56881607 C115.41081885 0.66281529 137.17285021 0.82782122 158.93554688 1.02172852 C158.93554688 22.14172852 158.93554688 43.26172852 158.93554688 65.02172852 C110.75554687 65.02172852 62.57554687 65.02172852 12.93554688 65.02172852 C11.94554687 67.00172852 11.94554687 67.00172852 10.93554688 69.02172852 C9.11491061 71.25136887 7.27340561 73.42511755 5.37304688 75.58422852 C4.27831049 76.84378855 3.18456889 78.10421385 2.09179688 79.36547852 C1.55296875 79.98680664 1.01414062 80.60813477 0.45898438 81.24829102 C-1.61229282 83.65947011 -3.62366321 86.11640761 -5.62695312 88.58422852 C-8.89223615 92.60530942 -12.21003156 96.57518013 -15.56445312 100.52172852 C-18.93728901 104.49076395 -22.27621958 108.48189873 -25.56445312 112.52172852 C-28.85268924 116.56156146 -32.19171755 120.55260523 -35.56445312 124.52172852 C-39.69294004 129.3812496 -43.75715838 134.28763279 -47.78320312 139.23266602 C-51.84024119 144.19281186 -55.95458957 149.10533641 -60.06445312 154.02172852 C-58.78841154 156.77360163 -57.41972376 158.96689817 -55.41210938 161.23657227 C-54.88866943 161.83348877 -54.36522949 162.43040527 -53.82592773 163.04541016 C-53.26526611 163.67697021 -52.70460449 164.30853027 -52.12695312 164.95922852 C-50.94140797 166.31022148 -49.75652265 167.66179375 -48.57226562 169.01391602 C-47.97961914 169.6890625 -47.38697266 170.36420898 -46.77636719 171.05981445 C-44.31999298 173.87490617 -41.90758591 176.72577074 -39.50195312 179.58422852 C-34.22933003 185.83780475 -28.90933131 192.04985656 -23.58056641 198.25561523 C-20.57509878 201.75667044 -17.57299497 205.26061197 -14.57128906 208.76489258 C-12.03760104 211.72224104 -9.50102663 214.67702531 -6.95898438 217.62719727 C-1.51443622 223.95214044 3.86158068 230.31346883 9.09570312 236.81469727 C10.84831361 238.99995409 10.84831361 238.99995409 12.68164062 240.69750977 C13.93554688 242.02172852 13.93554688 242.02172852 13.93554688 244.02172852 C14.65246043 244.02080672 15.36937399 244.01988493 16.1080122 244.0189352 C33.55123434 243.99685189 50.99445293 243.98030324 68.43768597 243.96991634 C76.87309458 243.96475983 85.30849386 243.95772937 93.74389648 243.94628906 C101.09609461 243.93632257 108.44828598 243.9298704 115.80049068 243.92764002 C119.69349142 243.92633626 123.58647284 243.92327151 127.47946739 243.91599846 C131.14425425 243.90920727 134.80901383 243.90711788 138.47380638 243.90862083 C140.45882897 243.90821489 142.44384859 243.90283583 144.42886353 243.89730835 C145.61371841 243.89868301 146.7985733 243.90005768 148.01933289 243.901474 C149.56103165 243.90009131 149.56103165 243.90009131 151.13387585 243.89868069 C153.93554688 244.02172852 153.93554688 244.02172852 158.93554688 245.02172852 C158.93554688 267.79172852 158.93554688 290.56172852 158.93554688 314.02172852 C136.88164677 314.36096041 114.82987395 314.6369987 92.77402306 314.79891109 C82.53198916 314.87610421 72.29169683 314.98124567 62.05078125 315.15332031 C53.1196489 315.30331496 44.1897781 315.39971317 35.25742114 315.43305594 C30.53144772 315.452535 25.80908156 315.49795186 21.08427048 315.60767937 C-11.54815693 316.33664425 -11.54815693 316.33664425 -19.47066307 308.82418919 C-21.60722999 306.29979801 -23.39147421 303.73624389 -25.00841904 300.8531208 C-26.57626038 298.13414366 -28.59011391 295.83640569 -30.62695312 293.45922852 C-31.31917969 292.59168945 -32.01140625 291.72415039 -32.72460938 290.83032227 C-35.54962996 287.43935431 -38.53945732 284.23381068 -41.56445312 281.02172852 C-45.38654762 276.96297861 -49.07882942 272.87875814 -52.56445312 268.52172852 C-57.12487239 262.82541147 -62.08179976 257.54853786 -67.06835938 252.22875977 C-71.44562026 247.55779531 -75.61588202 242.72425311 -79.76367188 237.84985352 C-80.78027069 236.65686537 -81.797209 235.46416646 -82.81445312 234.27172852 C-83.32927246 233.66804443 -83.8440918 233.06436035 -84.37451172 232.44238281 C-87.75547302 228.49687569 -91.21547355 224.64053486 -94.75195312 220.83422852 C-98.88257668 216.38844612 -102.7780545 211.81778807 -106.46728516 206.99682617 C-108.46495968 204.7084579 -109.92989823 203.2996165 -112.30932617 201.57666016 C-117.57740395 197.46862081 -121.32171861 193.31360714 -122.82409668 186.65490723 C-123.93127408 177.48847385 -123.76170548 168.32098285 -123.53997803 159.10650635 C-123.48925026 156.07513549 -123.52403698 153.047197 -123.55932522 150.01579762 C-123.58398504 147.06454929 -123.55912772 144.11527426 -123.51942635 141.16425133 C-123.50538055 139.76949706 -123.50485662 138.37452862 -123.5191021 136.97977638 C-123.56611705 128.95587308 -122.73440062 123.95664345 -117.24438477 117.91113281 C-115.52556375 116.27308333 -113.79914627 114.64295998 -112.06445312 113.02172852 C-110.59905506 111.29502218 -109.15720324 109.54772918 -107.75195312 107.77172852 C-104.11684357 103.26805296 -100.36887966 98.88184549 -96.56445312 94.52172852 C-92.83026354 90.23970071 -89.13986036 85.93840804 -85.56445312 81.52172852 C-81.48688186 76.4882431 -77.25939398 71.59839542 -73.00634766 66.71362305 C-68.08433221 61.0575348 -63.23373179 55.34404503 -58.40283203 49.61010742 C-56.14677886 46.93263899 -53.88738707 44.25799895 -51.62695312 41.58422852 C-51.17707031 41.0518457 -50.7271875 40.51946289 -50.26367188 39.97094727 C-46.84295457 35.92828136 -43.3934487 31.91096469 -39.93945312 27.89672852 C-35.67188184 22.93621452 -31.48891939 17.91847206 -27.39257812 12.81469727 C-26.62429687 11.89301758 -25.85601562 10.97133789 -25.06445312 10.02172852 C-24.60989998 9.29388688 -24.15534683 8.56604525 -23.68701935 7.8161478 C-17.44247412 -1.01046893 -9.81461802 -0.20127705 0 0 Z " fill="#FFFFFF" transform="translate(122.064453125,-1.021728515625)"/>
<path d="M0 0 C35.97 0 71.94 0 109 0 C109 22.11 109 44.22 109 67 C73.03 67 37.06 67 0 67 C0 44.89 0 22.78 0 0 Z " fill="#FFFFFF" transform="translate(133,123)"/>
</svg>
